<svg xmlns="http://www.w3.org/2000/svg" xmlns:xlink="http://www.w3.org/1999/xlink" xmlns:inkscape="http://www.inkscape.org/namespaces/inkscape" version="1.1" width="807.248" height="103.32" viewBox="0 0 807.248 103.32">
<defs>
<clipPath id="clip_1">
<path transform="matrix(1,0,0,-1,0,103.32)" d="M0 103.32H807.248V0H0Z"/>
</clipPath>
</defs>
<g inkscape:groupmode="layer" inkscape:label="Calque 1">
<g clip-path="url(#clip_1)">
<path transform="matrix(1,0,0,-1,93.9385,73.7587)" d="M0 0 11.758-14.61C-2.051-24.81-17.921-29.556-38.171-29.556-54.183-29.556-67.722-26.063-77.322-19.454-86.399-13.204-91.979-4.178-93.456 6.645-95.537 21.895-90.841 37.034-80.236 49.269-66.474 65.149-44.923 73.89-19.55 73.89-3.843 73.885 10.016 69.86 21.647 61.91 20.682 60.651 11.402 48.563 10.509 47.401 1.259 52.954-8.605 55.889-18.022 55.889-21.977 55.889-25.86 55.371-29.566 54.351-36.658 52.406-42.446 49.655-49.381 41.979-56.635 33.958-60.772 22.007-60.184 10.783-59.595-.477-50.406-9.077-37.846-10.123-36.521-10.235-35.141-10.29-33.755-10.29-22.139-10.29-9.534-6.447 0 0" fill="#ffffff"/>
<path transform="matrix(1,0,0,-1,685.6464,2.518196)" d="M0 0-30.064-98.152H-66.265L-35.252 0Z" fill="#ffffff"/>
<path transform="matrix(1,0,0,-1,609.9724,100.6705)" d="M0 0H-37.3L-39.34 21.97-39.4 22.64-39.41 22.75H-68.01L-58.26 36.27H-40.69L-44.14 73.59-44.17 73.93-44.37 73.66-71.8 35.7-71.94 35.5-81.15 22.75-81.19 22.7-81.67 22.03-97.96 0H-128.94L-58.22 98.14H-10.58Z" fill="#ffffff"/>
<path transform="matrix(1,0,0,-1,432.9566,23.0989)" d="M0 0C-1.792-2.041-2.488-4.645-2.066-7.742-1.284-13.56 5.701-16.23 14.534-19.606 16.596-20.393 18.464-21.109 20.418-21.911L20.667-22.012C34.79-27.795 49.391-33.77 51.198-47.116 51.975-52.878 50.249-58.843 46.573-63.077 37.359-73.693 15.189-80.028-12.732-80.028-23.424-80.028-37.029-77.47-55.538-71.972L-49.7-56.066C-38.537-59.315-25.871-62.778-16.687-62.778H-16.073C-10.402-62.778 1.396-62.778 5.98-57.493 7.539-55.706 8.148-53.432 7.783-50.741 6.904-44.248-2.254-40.298-12.859-35.729-20.114-32.602-27.079-29.46-32.617-25.373-38.948-20.702-42.425-15.453-43.253-9.336-44.111-3.01-42.38 3.345-38.618 7.681-29.993 17.621-9.793 23.099 18.256 23.099 36.227 23.099 48.842 20.733 56.777 18.941L51.924 2.061C44.385 4.127 35.41 6.325 24.307 6.325H23.997C18.433 6.305 4.955 5.65 0 0" fill="#ffffff"/>
<path transform="matrix(1,0,0,-1,205.8683,49.0101)" d="M0 0C-4.569-15.575-12.859-33.78-36.603-36.298-38.166-36.466-39.654-36.552-41.024-36.552-46.604-36.552-50.629-35.201-53.335-32.419-57.828-27.8-57.366-20.865-56.32-14.692-54.62-4.594-51.579 4.305-47.284 11.768-40.578 23.444-30.643 30.054-17.763 31.424-16.174 31.597-14.656 31.678-13.26 31.678-7.579 31.678-3.483 30.308-.736 27.49 3.934 22.683 4.158 14.21 0 0M36.597 13.925C33.582 35.973 13.687 49.137-16.631 49.137-41.689 49.137-64.037 39.938-77.947 23.901-88.709 11.478-93.486-3.792-91.395-19.098-89.892-30.099-84.846-38.714-76.403-44.71-67.438-51.081-54.899-54.31-39.141-54.31-13.854-54.31 8.884-44.812 23.241-28.251 33.892-15.971 38.633-.99 36.597 13.925" fill="#ffffff"/>
<path transform="matrix(1,0,0,-1,332.9012,47.7918)" d="M0 0C-4.452-5.132-10.757-7.96-17.748-7.96H-41.639L-41.583-7.798-28.734 32.399-28.708 32.486H-9.529C-.127 32.486 4.98 25.911 5.874 19.393 6.808 12.575 4.61 5.326 0 0M11.925-17.093 12.093-17.052 13.377-16.753C35.283-11.651 44.979 6.605 42.989 21.195 42.029 28.211 38.709 34.105 33.389 38.237 27.394 42.903 19.129 45.263 8.823 45.263H-59.96L-90.019-52.878H-54.767L-44.68-20.829-44.649-20.743H-21.855L-21.819-20.809-4.884-52.878H33.1L12.011-17.24Z" fill="#ffffff"/>
<path transform="matrix(1,0,0,-1,764.0044,47.7918)" d="M0 0C-4.452-5.132-10.752-7.96-17.743-7.96H-41.634L-41.583-7.798-28.734 32.399-28.703 32.486H-9.524C-.127 32.486 4.98 25.911 5.879 19.393 6.813 12.575 4.615 5.326 0 0M11.925-17.093 12.098-17.052 13.377-16.753C35.283-11.651 44.984 6.605 42.989 21.195 42.03 28.211 38.714 34.105 33.394 38.237 27.399 42.903 19.134 45.263 8.823 45.263H-59.955L-90.019-52.878H-54.762L-44.68-20.829-44.649-20.743H-21.855L-21.819-20.809-4.884-52.878H33.1L12.016-17.24Z" fill="#ffffff"/>
</g>
</g>
</svg>
